<svg width="24" height="24" viewBox="0 0 24 24" fill="none" xmlns="http://www.w3.org/2000/svg">
<path fill-rule="evenodd" clip-rule="evenodd" d="M20.2014 18.966V18.2472V18.2312H21.2377C21.6681 18.2312 22.0188 17.8799 22.0188 17.4486V6.31597C22.0188 5.88472 21.6681 5.53333 21.2377 5.53333H12.2145C12.1916 5.46809 12.1687 5.39857 12.145 5.32651C11.9539 4.74578 11.7085 4 10.971 4H4.96087C4.53043 4 4.17971 4.35139 4.17971 4.78264V5.83681H3.46232C3.20725 5.83681 3 6.04444 3 6.3V17.4326V18.966C3 19.2215 3.20725 19.4292 3.46232 19.4292H19.7391C19.9942 19.4292 20.2014 19.2215 20.2014 18.966ZM10.4928 7.37014L10.0942 6.3C9.99855 6.06042 9.72754 5.85278 9.48841 5.85278H4.84928V4.79861C4.84928 4.73472 4.8971 4.67083 4.97681 4.67083H10.971C11.3125 4.67083 11.5336 5.42487 11.6741 5.90397C11.7107 6.02874 11.7418 6.13486 11.7681 6.20417H21.2536C21.3174 6.20417 21.3812 6.25208 21.3812 6.33194V17.4646C21.3812 17.5285 21.3333 17.5924 21.2536 17.5924H20.2014V7.83333C20.2014 7.57778 19.9942 7.37014 19.7391 7.37014H10.4928ZM11.7536 16.7417V9.46893H10.3082L8.50781 10.6088V11.9725L10.1733 10.9285H10.2159V16.7417H11.7536Z" fill="#5F98F5"/>
</svg>
