<svg width="24" height="24" viewBox="0 0 24 24" fill="none" xmlns="http://www.w3.org/2000/svg">
<path fill-rule="evenodd" clip-rule="evenodd" d="M20.2014 18.966V18.2472V18.2312H21.2377C21.6681 18.2312 22.0188 17.8799 22.0188 17.4486V6.31597C22.0188 5.88472 21.6681 5.53333 21.2377 5.53333H12.2145C12.1916 5.46809 12.1687 5.39857 12.145 5.32651C11.9539 4.74578 11.7085 4 10.971 4H4.96087C4.53043 4 4.17971 4.35139 4.17971 4.78264V5.83681H3.46232C3.20725 5.83681 3 6.04444 3 6.3V17.4326V18.966C3 19.2215 3.20725 19.4292 3.46232 19.4292H19.7391C19.9942 19.4292 20.2014 19.2215 20.2014 18.966ZM10.4928 7.37014L10.0942 6.3C9.99855 6.06042 9.72754 5.85278 9.48841 5.85278H4.84928V4.79861C4.84928 4.73472 4.8971 4.67083 4.97681 4.67083H10.971C11.3125 4.67083 11.5336 5.42487 11.6741 5.90397C11.7107 6.02874 11.7418 6.13486 11.7681 6.20417H21.2536C21.3174 6.20417 21.3812 6.25208 21.3812 6.33194V17.4646C21.3812 17.5285 21.3333 17.5924 21.2536 17.5924H20.2014V7.83333C20.2014 7.57778 19.9942 7.37014 19.7391 7.37014H10.4928ZM8.58946 15.6337V16.7417H13.7741V15.4846H10.7201V15.4348L11.7819 14.3944C12.2815 13.9398 12.6685 13.5504 12.9431 13.226C13.2178 12.8993 13.4083 12.6022 13.5149 12.3347C13.6238 12.0672 13.6782 11.7961 13.6782 11.5215C13.6782 11.1025 13.5705 10.7308 13.3551 10.4064C13.1396 10.0821 12.8378 9.82879 12.4495 9.6465C12.0637 9.46184 11.6103 9.36951 11.0895 9.36951C10.5828 9.36951 10.1354 9.46539 9.74713 9.65715C9.35887 9.84891 9.05702 10.12 8.84159 10.4704C8.62615 10.8207 8.51843 11.2339 8.51843 11.7097H9.97795C9.97795 11.4777 10.0229 11.2777 10.1129 11.1096C10.2029 10.9415 10.3307 10.8125 10.4964 10.7225C10.6621 10.6325 10.8563 10.5875 11.0788 10.5875C11.2919 10.5875 11.4824 10.6302 11.6505 10.7154C11.8186 10.7982 11.9512 10.9178 12.0483 11.0741C12.1453 11.2279 12.1939 11.4114 12.1939 11.6245C12.1939 11.8162 12.1548 11.995 12.0767 12.1607C11.9985 12.3241 11.8837 12.491 11.7322 12.6614C11.5831 12.8319 11.3984 13.0236 11.1782 13.2367L8.58946 15.6337Z" fill="#95FFAC"/>
</svg>
